<svg width="200" height="200" viewBox="0 0 200 200" fill="none" xmlns="http://www.w3.org/2000/svg">
<circle cx="100" cy="100" r="100" fill="white"/>
<path d="M100 -4.37114e-06C105.232 -4.59982e-06 110.455 0.410527 115.622 1.22781L100 100L100 -4.37114e-06Z" fill="#DC0D15"/>
<circle cx="100" cy="100" r="68" fill="black"/>
<path d="M53.9302 98.32V101.64H46.9702V108.6H43.6502V101.64H36.7302V98.32H43.6502V91.4H46.9702V98.32H53.9302ZM77.167 110.56C75.2737 113.2 72.6204 114.52 69.207 114.52C65.7937 114.52 63.1404 113.2 61.247 110.56C59.3537 107.92 58.407 104.4 58.407 100C58.407 95.6 59.3537 92.08 61.247 89.44C63.1404 86.8 65.7937 85.48 69.207 85.48C72.6204 85.48 75.2737 86.8 77.167 89.44C79.0604 92.08 80.007 95.6 80.007 100C80.007 104.4 79.0604 107.92 77.167 110.56ZM63.967 108.04C65.1937 109.933 66.9404 110.88 69.207 110.88C71.4737 110.88 73.2204 109.933 74.447 108.04C75.7004 106.147 76.327 103.467 76.327 100C76.327 96.5333 75.7004 93.8533 74.447 91.96C73.2204 90.04 71.4737 89.08 69.207 89.08C66.9404 89.08 65.1937 90.0267 63.967 91.92C62.7404 93.8133 62.127 96.5067 62.127 100C62.127 103.467 62.7404 106.147 63.967 108.04ZM88.8314 109.88L86.2314 119.6H83.2314L84.8314 109.88H88.8314ZM110.858 110.56C108.964 113.2 106.311 114.52 102.898 114.52C99.4843 114.52 96.831 113.2 94.9377 110.56C93.0443 107.92 92.0977 104.4 92.0977 100C92.0977 95.6 93.0443 92.08 94.9377 89.44C96.831 86.8 99.4843 85.48 102.898 85.48C106.311 85.48 108.964 86.8 110.858 89.44C112.751 92.08 113.698 95.6 113.698 100C113.698 104.4 112.751 107.92 110.858 110.56ZM97.6577 108.04C98.8843 109.933 100.631 110.88 102.898 110.88C105.164 110.88 106.911 109.933 108.138 108.04C109.391 106.147 110.018 103.467 110.018 100C110.018 96.5333 109.391 93.8533 108.138 91.96C106.911 90.04 105.164 89.08 102.898 89.08C100.631 89.08 98.8843 90.0267 97.6577 91.92C96.431 93.8133 95.8177 96.5067 95.8177 100C95.8177 103.467 96.431 106.147 97.6577 108.04ZM116.825 114V110.96L126.705 100.88C129.345 98.24 130.665 95.9733 130.665 94.08C130.665 92.5067 130.185 91.28 129.225 90.4C128.265 89.52 127.092 89.08 125.705 89.08C123.065 89.08 121.145 90.3333 119.945 92.84L116.825 91C117.705 89.1867 118.918 87.8133 120.465 86.88C122.038 85.9467 123.772 85.48 125.665 85.48C128.012 85.48 130.052 86.2533 131.785 87.8C133.518 89.3467 134.385 91.4267 134.385 94.04C134.385 96.8667 132.718 99.9467 129.385 103.28L122.225 110.4H134.905V114H116.825ZM145.008 97.88C143.195 97.88 141.688 97.28 140.488 96.08C139.288 94.88 138.688 93.4133 138.688 91.68C138.688 89.9733 139.288 88.52 140.488 87.32C141.715 86.0933 143.222 85.48 145.008 85.48C146.822 85.48 148.328 86.08 149.528 87.28C150.728 88.48 151.328 89.9467 151.328 91.68C151.328 93.4133 150.728 94.88 149.528 96.08C148.355 97.28 146.848 97.88 145.008 97.88ZM142.688 94.04C143.302 94.6533 144.075 94.96 145.008 94.96C145.942 94.96 146.702 94.64 147.288 94C147.902 93.36 148.208 92.5867 148.208 91.68C148.208 90.7733 147.902 90.0133 147.288 89.4C146.702 88.76 145.942 88.44 145.008 88.44C144.075 88.44 143.302 88.76 142.688 89.4C142.102 90.0133 141.808 90.7733 141.808 91.68C141.808 92.6133 142.102 93.4 142.688 94.04ZM140.568 110.04L159.168 89.24L161.128 90.32L142.488 111.16L140.568 110.04ZM161.608 112.68C160.408 113.88 158.902 114.48 157.088 114.48C155.275 114.48 153.768 113.88 152.568 112.68C151.368 111.48 150.768 110.013 150.768 108.28C150.768 106.547 151.368 105.08 152.568 103.88C153.768 102.68 155.275 102.08 157.088 102.08C158.902 102.08 160.408 102.68 161.608 103.88C162.808 105.08 163.408 106.547 163.408 108.28C163.408 110.013 162.808 111.48 161.608 112.68ZM154.768 110.6C155.382 111.213 156.155 111.52 157.088 111.52C158.022 111.52 158.782 111.213 159.368 110.6C159.982 109.96 160.288 109.187 160.288 108.28C160.288 107.373 159.982 106.613 159.368 106C158.782 105.36 158.022 105.04 157.088 105.04C156.155 105.04 155.382 105.36 154.768 106C154.182 106.613 153.888 107.373 153.888 108.28C153.888 109.187 154.182 109.96 154.768 110.6Z" fill="#DC0D15"/>
</svg>
