<svg width="200" height="200" viewBox="0 0 200 200" fill="none" xmlns="http://www.w3.org/2000/svg">
<circle cx="100" cy="100" r="100" fill="white"/>
<path d="M100 -4.37114e-06C104.292 -4.55875e-06 108.58 0.276327 112.836 0.827277L100 100L100 -4.37114e-06Z" fill="#DC0D15"/>
<circle cx="100" cy="100" r="68" fill="black"/>
<path d="M53.6177 98.32V101.64H46.6577V108.6H43.3377V101.64H36.4177V98.32H43.3377V91.4H46.6577V98.32H53.6177ZM76.8545 110.56C74.9612 113.2 72.3079 114.52 68.8945 114.52C65.4812 114.52 62.8279 113.2 60.9345 110.56C59.0412 107.92 58.0945 104.4 58.0945 100C58.0945 95.6 59.0412 92.08 60.9345 89.44C62.8279 86.8 65.4812 85.48 68.8945 85.48C72.3079 85.48 74.9612 86.8 76.8545 89.44C78.7479 92.08 79.6945 95.6 79.6945 100C79.6945 104.4 78.7479 107.92 76.8545 110.56ZM63.6545 108.04C64.8812 109.933 66.6279 110.88 68.8945 110.88C71.1612 110.88 72.9079 109.933 74.1345 108.04C75.3879 106.147 76.0145 103.467 76.0145 100C76.0145 96.5333 75.3879 93.8533 74.1345 91.96C72.9079 90.04 71.1612 89.08 68.8945 89.08C66.6279 89.08 64.8812 90.0267 63.6545 91.92C62.4279 93.8133 61.8145 96.5067 61.8145 100C61.8145 103.467 62.4279 106.147 63.6545 108.04ZM88.5189 109.88L85.9189 119.6H82.9189L84.5189 109.88H88.5189ZM113.556 105.2V108.68H110.156V114H106.436V108.68H92.1561V105.2L102.196 86H106.196L96.1561 105.2H106.436V97.28H110.156V105.2H113.556ZM137.55 105.2V108.68H134.15V114H130.43V108.68H116.15V105.2L126.19 86H130.19L120.15 105.2H130.43V97.28H134.15V105.2H137.55ZM145.321 97.88C143.507 97.88 142.001 97.28 140.801 96.08C139.601 94.88 139.001 93.4133 139.001 91.68C139.001 89.9733 139.601 88.52 140.801 87.32C142.027 86.0933 143.534 85.48 145.321 85.48C147.134 85.48 148.641 86.08 149.841 87.28C151.041 88.48 151.641 89.9467 151.641 91.68C151.641 93.4133 151.041 94.88 149.841 96.08C148.667 97.28 147.161 97.88 145.321 97.88ZM143.001 94.04C143.614 94.6533 144.387 94.96 145.321 94.96C146.254 94.96 147.014 94.64 147.601 94C148.214 93.36 148.521 92.5867 148.521 91.68C148.521 90.7733 148.214 90.0133 147.601 89.4C147.014 88.76 146.254 88.44 145.321 88.44C144.387 88.44 143.614 88.76 143.001 89.4C142.414 90.0133 142.121 90.7733 142.121 91.68C142.121 92.6133 142.414 93.4 143.001 94.04ZM140.881 110.04L159.481 89.24L161.441 90.32L142.801 111.16L140.881 110.04ZM161.921 112.68C160.721 113.88 159.214 114.48 157.401 114.48C155.587 114.48 154.081 113.88 152.881 112.68C151.681 111.48 151.081 110.013 151.081 108.28C151.081 106.547 151.681 105.08 152.881 103.88C154.081 102.68 155.587 102.08 157.401 102.08C159.214 102.08 160.721 102.68 161.921 103.88C163.121 105.08 163.721 106.547 163.721 108.28C163.721 110.013 163.121 111.48 161.921 112.68ZM155.081 110.6C155.694 111.213 156.467 111.52 157.401 111.52C158.334 111.52 159.094 111.213 159.681 110.6C160.294 109.96 160.601 109.187 160.601 108.28C160.601 107.373 160.294 106.613 159.681 106C159.094 105.36 158.334 105.04 157.401 105.04C156.467 105.04 155.694 105.36 155.081 106C154.494 106.613 154.201 107.373 154.201 108.28C154.201 109.187 154.494 109.96 155.081 110.6Z" fill="#DC0D15"/>
</svg>
