<svg width="200" height="200" viewBox="0 0 200 200" fill="none" xmlns="http://www.w3.org/2000/svg">
<circle cx="100" cy="100" r="100" fill="white"/>
<path d="M100 -4.37114e-06C118.937 -5.19889e-06 137.484 5.37685 153.485 15.5051C169.485 25.6333 182.281 40.0965 190.384 57.2121L100 100L100 -4.37114e-06Z" fill="#DC0D15"/>
<circle cx="100" cy="100" r="68" fill="black"/>
<path d="M75.6388 98.32V101.64H68.6788V108.6H65.3588V101.64H58.4388V98.32H65.3588V91.4H68.6788V98.32H75.6388ZM86.2356 86H89.4356V114H85.7556V90L79.7956 91.76L78.8756 88.56L86.2356 86ZM109.293 99.52C110.653 100.213 111.72 101.147 112.493 102.32C113.267 103.493 113.653 104.827 113.653 106.32C113.653 108.88 112.76 110.893 110.973 112.36C109.187 113.8 106.88 114.52 104.053 114.52C101.253 114.52 98.9601 113.8 97.1734 112.36C95.3868 110.893 94.4934 108.88 94.4934 106.32C94.4934 104.827 94.8801 103.493 95.6534 102.32C96.4268 101.147 97.4934 100.213 98.8534 99.52C96.5601 98.08 95.4134 96.04 95.4134 93.4C95.4134 90.8667 96.2534 88.92 97.9334 87.56C99.6401 86.1733 101.68 85.48 104.053 85.48C106.453 85.48 108.493 86.1733 110.173 87.56C111.88 88.92 112.733 90.8667 112.733 93.4C112.733 96.04 111.587 98.08 109.293 99.52ZM104.053 89.04C102.64 89.04 101.453 89.4133 100.493 90.16C99.5601 90.9067 99.0934 92.0133 99.0934 93.48C99.0934 94.8933 99.5734 96 100.533 96.8C101.493 97.5733 102.667 97.96 104.053 97.96C105.44 97.96 106.613 97.5733 107.573 96.8C108.533 96 109.013 94.8933 109.013 93.48C109.013 92.0133 108.547 90.9067 107.613 90.16C106.68 89.4133 105.493 89.04 104.053 89.04ZM104.053 110.96C105.84 110.96 107.267 110.547 108.333 109.72C109.427 108.867 109.973 107.653 109.973 106.08C109.973 104.533 109.427 103.347 108.333 102.52C107.267 101.667 105.84 101.24 104.053 101.24C102.293 101.24 100.867 101.667 99.7734 102.52C98.7068 103.347 98.1734 104.533 98.1734 106.08C98.1734 107.653 98.7068 108.867 99.7734 109.72C100.867 110.547 102.293 110.96 104.053 110.96ZM123.3 97.88C121.486 97.88 119.98 97.28 118.78 96.08C117.58 94.88 116.98 93.4133 116.98 91.68C116.98 89.9733 117.58 88.52 118.78 87.32C120.006 86.0933 121.513 85.48 123.3 85.48C125.113 85.48 126.62 86.08 127.82 87.28C129.02 88.48 129.62 89.9467 129.62 91.68C129.62 93.4133 129.02 94.88 127.82 96.08C126.646 97.28 125.14 97.88 123.3 97.88ZM120.98 94.04C121.593 94.6533 122.366 94.96 123.3 94.96C124.233 94.96 124.993 94.64 125.58 94C126.193 93.36 126.5 92.5867 126.5 91.68C126.5 90.7733 126.193 90.0133 125.58 89.4C124.993 88.76 124.233 88.44 123.3 88.44C122.366 88.44 121.593 88.76 120.98 89.4C120.393 90.0133 120.1 90.7733 120.1 91.68C120.1 92.6133 120.393 93.4 120.98 94.04ZM118.86 110.04L137.46 89.24L139.42 90.32L120.78 111.16L118.86 110.04ZM139.9 112.68C138.7 113.88 137.193 114.48 135.38 114.48C133.566 114.48 132.06 113.88 130.86 112.68C129.66 111.48 129.06 110.013 129.06 108.28C129.06 106.547 129.66 105.08 130.86 103.88C132.06 102.68 133.566 102.08 135.38 102.08C137.193 102.08 138.7 102.68 139.9 103.88C141.1 105.08 141.7 106.547 141.7 108.28C141.7 110.013 141.1 111.48 139.9 112.68ZM133.06 110.6C133.673 111.213 134.446 111.52 135.38 111.52C136.313 111.52 137.073 111.213 137.66 110.6C138.273 109.96 138.58 109.187 138.58 108.28C138.58 107.373 138.273 106.613 137.66 106C137.073 105.36 136.313 105.04 135.38 105.04C134.446 105.04 133.673 105.36 133.06 106C132.473 106.613 132.18 107.373 132.18 108.28C132.18 109.187 132.473 109.96 133.06 110.6Z" fill="#DC0D15"/>
</svg>
