<svg width="200" height="200" viewBox="0 0 200 200" fill="none" xmlns="http://www.w3.org/2000/svg">
<circle cx="100" cy="100" r="100" fill="white"/>
<path d="M100 -4.37114e-06C110.445 -4.82769e-06 120.825 1.63631 130.763 4.84943L100 100L100 -4.37114e-06Z" fill="#DC0D15"/>
<circle cx="100" cy="100" r="68" fill="black"/>
<path d="M83.702 98.32V101.64H76.742V108.6H73.422V101.64H66.502V98.32H73.422V91.4H76.742V98.32H83.702ZM97.1789 96.92C99.8189 96.92 102.046 97.7067 103.859 99.28C105.699 100.827 106.619 102.973 106.619 105.72C106.619 108.44 105.686 110.587 103.819 112.16C101.952 113.733 99.6856 114.52 97.0189 114.52C94.8856 114.52 92.9789 114.013 91.2989 113C89.6189 111.96 88.4456 110.467 87.7789 108.52L90.9389 106.72C91.3122 108.08 92.0322 109.12 93.0989 109.84C94.1656 110.533 95.4722 110.88 97.0189 110.88C98.7789 110.88 100.206 110.427 101.299 109.52C102.392 108.613 102.939 107.347 102.939 105.72C102.939 104.093 102.392 102.827 101.299 101.92C100.206 100.987 98.8056 100.52 97.0989 100.52H89.1789L90.2189 86H105.539V89.48H93.5789L93.0989 96.92H97.1789ZM116.236 97.88C114.423 97.88 112.916 97.28 111.716 96.08C110.516 94.88 109.916 93.4133 109.916 91.68C109.916 89.9733 110.516 88.52 111.716 87.32C112.943 86.0933 114.45 85.48 116.236 85.48C118.05 85.48 119.556 86.08 120.756 87.28C121.956 88.48 122.556 89.9467 122.556 91.68C122.556 93.4133 121.956 94.88 120.756 96.08C119.583 97.28 118.076 97.88 116.236 97.88ZM113.916 94.04C114.53 94.6533 115.303 94.96 116.236 94.96C117.17 94.96 117.93 94.64 118.516 94C119.13 93.36 119.436 92.5867 119.436 91.68C119.436 90.7733 119.13 90.0133 118.516 89.4C117.93 88.76 117.17 88.44 116.236 88.44C115.303 88.44 114.53 88.76 113.916 89.4C113.33 90.0133 113.036 90.7733 113.036 91.68C113.036 92.6133 113.33 93.4 113.916 94.04ZM111.796 110.04L130.396 89.24L132.356 90.32L113.716 111.16L111.796 110.04ZM132.836 112.68C131.636 113.88 130.13 114.48 128.316 114.48C126.503 114.48 124.996 113.88 123.796 112.68C122.596 111.48 121.996 110.013 121.996 108.28C121.996 106.547 122.596 105.08 123.796 103.88C124.996 102.68 126.503 102.08 128.316 102.08C130.13 102.08 131.636 102.68 132.836 103.88C134.036 105.08 134.636 106.547 134.636 108.28C134.636 110.013 134.036 111.48 132.836 112.68ZM125.996 110.6C126.61 111.213 127.383 111.52 128.316 111.52C129.25 111.52 130.01 111.213 130.596 110.6C131.21 109.96 131.516 109.187 131.516 108.28C131.516 107.373 131.21 106.613 130.596 106C130.01 105.36 129.25 105.04 128.316 105.04C127.383 105.04 126.61 105.36 125.996 106C125.41 106.613 125.116 107.373 125.116 108.28C125.116 109.187 125.41 109.96 125.996 110.6Z" fill="#DC0D15"/>
</svg>
