<svg width="200" height="200" viewBox="0 0 200 200" fill="none" xmlns="http://www.w3.org/2000/svg">
<circle cx="100" cy="100" r="100" fill="white"/>
<path d="M100 -4.37114e-06C115.247 -5.03763e-06 130.293 3.4867 143.986 10.1935C157.68 16.9004 169.658 26.6497 179.005 38.696C188.353 50.7423 194.821 64.7666 197.917 79.6965C201.013 94.6264 200.654 110.067 196.867 124.836C193.08 139.606 185.966 153.314 176.068 164.913C166.17 176.511 153.752 185.693 139.761 191.755C125.771 197.818 110.579 200.601 95.3483 199.892C80.1173 199.182 65.2502 195 51.8837 187.663L100 100L100 -4.37114e-06Z" fill="#DC0D15"/>
<circle cx="100" cy="100" r="68" fill="black"/>
<path d="M71.9083 98.32V101.64H64.9483V108.6H61.6283V101.64H54.7083V98.32H61.6283V91.4H64.9483V98.32H71.9083ZM85.3852 96.92C88.0252 96.92 90.2518 97.7067 92.0652 99.28C93.9052 100.827 94.8252 102.973 94.8252 105.72C94.8252 108.44 93.8918 110.587 92.0252 112.16C90.1585 113.733 87.8918 114.52 85.2252 114.52C83.0918 114.52 81.1852 114.013 79.5052 113C77.8252 111.96 76.6518 110.467 75.9852 108.52L79.1452 106.72C79.5185 108.08 80.2385 109.12 81.3052 109.84C82.3718 110.533 83.6785 110.88 85.2252 110.88C86.9852 110.88 88.4118 110.427 89.5052 109.52C90.5985 108.613 91.1452 107.347 91.1452 105.72C91.1452 104.093 90.5985 102.827 89.5052 101.92C88.4118 100.987 87.0118 100.52 85.3052 100.52H77.3852L78.4252 86H93.7452V89.48H81.7852L81.3052 96.92H85.3852ZM113.024 99.52C114.384 100.213 115.451 101.147 116.224 102.32C116.997 103.493 117.384 104.827 117.384 106.32C117.384 108.88 116.491 110.893 114.704 112.36C112.917 113.8 110.611 114.52 107.784 114.52C104.984 114.52 102.691 113.8 100.904 112.36C99.1172 110.893 98.2239 108.88 98.2239 106.32C98.2239 104.827 98.6106 103.493 99.3839 102.32C100.157 101.147 101.224 100.213 102.584 99.52C100.291 98.08 99.1439 96.04 99.1439 93.4C99.1439 90.8667 99.9839 88.92 101.664 87.56C103.371 86.1733 105.411 85.48 107.784 85.48C110.184 85.48 112.224 86.1733 113.904 87.56C115.611 88.92 116.464 90.8667 116.464 93.4C116.464 96.04 115.317 98.08 113.024 99.52ZM107.784 89.04C106.371 89.04 105.184 89.4133 104.224 90.16C103.291 90.9067 102.824 92.0133 102.824 93.48C102.824 94.8933 103.304 96 104.264 96.8C105.224 97.5733 106.397 97.96 107.784 97.96C109.171 97.96 110.344 97.5733 111.304 96.8C112.264 96 112.744 94.8933 112.744 93.48C112.744 92.0133 112.277 90.9067 111.344 90.16C110.411 89.4133 109.224 89.04 107.784 89.04ZM107.784 110.96C109.571 110.96 110.997 110.547 112.064 109.72C113.157 108.867 113.704 107.653 113.704 106.08C113.704 104.533 113.157 103.347 112.064 102.52C110.997 101.667 109.571 101.24 107.784 101.24C106.024 101.24 104.597 101.667 103.504 102.52C102.437 103.347 101.904 104.533 101.904 106.08C101.904 107.653 102.437 108.867 103.504 109.72C104.597 110.547 106.024 110.96 107.784 110.96ZM127.03 97.88C125.217 97.88 123.71 97.28 122.51 96.08C121.31 94.88 120.71 93.4133 120.71 91.68C120.71 89.9733 121.31 88.52 122.51 87.32C123.737 86.0933 125.243 85.48 127.03 85.48C128.843 85.48 130.35 86.08 131.55 87.28C132.75 88.48 133.35 89.9467 133.35 91.68C133.35 93.4133 132.75 94.88 131.55 96.08C130.377 97.28 128.87 97.88 127.03 97.88ZM124.71 94.04C125.323 94.6533 126.097 94.96 127.03 94.96C127.963 94.96 128.723 94.64 129.31 94C129.923 93.36 130.23 92.5867 130.23 91.68C130.23 90.7733 129.923 90.0133 129.31 89.4C128.723 88.76 127.963 88.44 127.03 88.44C126.097 88.44 125.323 88.76 124.71 89.4C124.123 90.0133 123.83 90.7733 123.83 91.68C123.83 92.6133 124.123 93.4 124.71 94.04ZM122.59 110.04L141.19 89.24L143.15 90.32L124.51 111.16L122.59 110.04ZM143.63 112.68C142.43 113.88 140.923 114.48 139.11 114.48C137.297 114.48 135.79 113.88 134.59 112.68C133.39 111.48 132.79 110.013 132.79 108.28C132.79 106.547 133.39 105.08 134.59 103.88C135.79 102.68 137.297 102.08 139.11 102.08C140.923 102.08 142.43 102.68 143.63 103.88C144.83 105.08 145.43 106.547 145.43 108.28C145.43 110.013 144.83 111.48 143.63 112.68ZM136.79 110.6C137.403 111.213 138.177 111.52 139.11 111.52C140.043 111.52 140.803 111.213 141.39 110.6C142.003 109.96 142.31 109.187 142.31 108.28C142.31 107.373 142.003 106.613 141.39 106C140.803 105.36 140.043 105.04 139.11 105.04C138.177 105.04 137.403 105.36 136.79 106C136.203 106.613 135.91 107.373 135.91 108.28C135.91 109.187 136.203 109.96 136.79 110.6Z" fill="#DC0D15"/>
</svg>
