<svg width="200" height="200" viewBox="0 0 200 200" fill="none" xmlns="http://www.w3.org/2000/svg">
<circle cx="100" cy="100" r="100" fill="white"/>
<path d="M100 -4.37114e-06C118.177 -5.1657e-06 136.011 4.95461 151.583 14.3311C167.156 23.7076 179.878 37.1514 188.382 53.2169C196.886 69.2824 200.85 87.362 199.848 105.512C198.846 123.662 192.916 141.195 182.695 156.227C172.475 171.259 158.35 183.22 141.841 190.826C125.331 198.432 107.06 201.393 88.9932 199.392C70.9262 197.392 53.7463 190.504 39.3006 179.471C24.8549 168.437 13.6899 153.675 7.00588 136.771L100 100L100 -4.37114e-06Z" fill="#DC0D15"/>
<circle cx="100" cy="100" r="68" fill="black"/>
<path d="M72.5528 98.32V101.64H65.5928V108.6H62.2728V101.64H55.3528V98.32H62.2728V91.4H65.5928V98.32H72.5528ZM85.9897 95.68C88.7897 95.68 91.0964 96.56 92.9097 98.32C94.723 100.053 95.6297 102.307 95.6297 105.08C95.6297 107.853 94.723 110.12 92.9097 111.88C91.0964 113.64 88.7897 114.52 85.9897 114.52C83.163 114.52 80.843 113.64 79.0297 111.88C77.243 110.12 76.3497 107.853 76.3497 105.08C76.3497 102.92 76.9097 101.053 78.0297 99.48L87.0297 86H91.2697L84.6697 95.76C85.2564 95.7067 85.6964 95.68 85.9897 95.68ZM81.6697 109.36C82.7897 110.427 84.2297 110.96 85.9897 110.96C87.7497 110.96 89.1764 110.427 90.2697 109.36C91.3897 108.267 91.9497 106.84 91.9497 105.08C91.9497 103.32 91.3897 101.907 90.2697 100.84C89.1764 99.7733 87.7497 99.24 85.9897 99.24C84.203 99.24 82.763 99.7733 81.6697 100.84C80.5764 101.907 80.0297 103.32 80.0297 105.08C80.0297 106.84 80.5764 108.267 81.6697 109.36ZM116.342 94.88C116.342 97.04 115.769 98.92 114.622 100.52H114.662L105.622 114H101.422L108.062 104.2C107.476 104.253 107.022 104.28 106.702 104.28C103.876 104.28 101.556 103.413 99.7422 101.68C97.9555 99.92 97.0622 97.6533 97.0622 94.88C97.0622 92.1067 97.9555 89.8533 99.7422 88.12C101.556 86.36 103.876 85.48 106.702 85.48C109.529 85.48 111.836 86.36 113.622 88.12C115.436 89.8533 116.342 92.1067 116.342 94.88ZM102.382 90.64C101.289 91.7067 100.742 93.12 100.742 94.88C100.742 96.64 101.289 98.0667 102.382 99.16C103.502 100.227 104.942 100.76 106.702 100.76C108.462 100.76 109.889 100.227 110.982 99.16C112.102 98.0667 112.662 96.64 112.662 94.88C112.662 93.12 112.116 91.7067 111.022 90.64C109.929 89.5733 108.489 89.04 106.702 89.04C104.942 89.04 103.502 89.5733 102.382 90.64ZM126.386 97.88C124.572 97.88 123.066 97.28 121.866 96.08C120.666 94.88 120.066 93.4133 120.066 91.68C120.066 89.9733 120.666 88.52 121.866 87.32C123.092 86.0933 124.599 85.48 126.386 85.48C128.199 85.48 129.706 86.08 130.906 87.28C132.106 88.48 132.706 89.9467 132.706 91.68C132.706 93.4133 132.106 94.88 130.906 96.08C129.732 97.28 128.226 97.88 126.386 97.88ZM124.066 94.04C124.679 94.6533 125.452 94.96 126.386 94.96C127.319 94.96 128.079 94.64 128.666 94C129.279 93.36 129.586 92.5867 129.586 91.68C129.586 90.7733 129.279 90.0133 128.666 89.4C128.079 88.76 127.319 88.44 126.386 88.44C125.452 88.44 124.679 88.76 124.066 89.4C123.479 90.0133 123.186 90.7733 123.186 91.68C123.186 92.6133 123.479 93.4 124.066 94.04ZM121.946 110.04L140.546 89.24L142.506 90.32L123.866 111.16L121.946 110.04ZM142.986 112.68C141.786 113.88 140.279 114.48 138.466 114.48C136.652 114.48 135.146 113.88 133.946 112.68C132.746 111.48 132.146 110.013 132.146 108.28C132.146 106.547 132.746 105.08 133.946 103.88C135.146 102.68 136.652 102.08 138.466 102.08C140.279 102.08 141.786 102.68 142.986 103.88C144.186 105.08 144.786 106.547 144.786 108.28C144.786 110.013 144.186 111.48 142.986 112.68ZM136.146 110.6C136.759 111.213 137.532 111.52 138.466 111.52C139.399 111.52 140.159 111.213 140.746 110.6C141.359 109.96 141.666 109.187 141.666 108.28C141.666 107.373 141.359 106.613 140.746 106C140.159 105.36 139.399 105.04 138.466 105.04C137.532 105.04 136.759 105.36 136.146 106C135.559 106.613 135.266 107.373 135.266 108.28C135.266 109.187 135.559 109.96 136.146 110.6Z" fill="#DC0D15"/>
</svg>
