<svg width="200" height="200" viewBox="0 0 200 200" fill="none" xmlns="http://www.w3.org/2000/svg">
<circle cx="100" cy="100" r="100" fill="white"/>
<path d="M100 -4.37114e-06C119.513 -5.2241e-06 138.601 5.7091 154.909 16.4238C171.218 27.1384 184.035 42.3904 191.782 60.3002C199.529 78.2101 201.866 97.9951 198.507 117.217C195.147 136.439 186.237 154.258 172.874 168.479C159.512 182.699 142.281 192.699 123.305 197.247C104.329 201.794 84.4365 200.69 66.0799 194.071C47.7234 187.452 31.7044 175.607 19.9971 159.996C8.28979 144.385 1.40572 125.689 0.193228 106.214L100 100L100 -4.37114e-06Z" fill="#DC0D15"/>
<circle cx="100" cy="100" r="68" fill="black"/>
<path d="M75.8536 98.32V101.64H68.8936V108.6H65.5736V101.64H58.6536V98.32H65.5736V91.4H68.8936V98.32H75.8536ZM76.0473 86H93.5273V89.32L83.3273 114H79.4473L89.5673 89.52H76.0473V86ZM115.314 105.2V108.68H111.914V114H108.194V108.68H93.9139V105.2L103.954 86H107.954L97.9139 105.2H108.194V97.28H111.914V105.2H115.314ZM123.085 97.88C121.272 97.88 119.765 97.28 118.565 96.08C117.365 94.88 116.765 93.4133 116.765 91.68C116.765 89.9733 117.365 88.52 118.565 87.32C119.792 86.0933 121.298 85.48 123.085 85.48C124.898 85.48 126.405 86.08 127.605 87.28C128.805 88.48 129.405 89.9467 129.405 91.68C129.405 93.4133 128.805 94.88 127.605 96.08C126.432 97.28 124.925 97.88 123.085 97.88ZM120.765 94.04C121.378 94.6533 122.152 94.96 123.085 94.96C124.018 94.96 124.778 94.64 125.365 94C125.978 93.36 126.285 92.5867 126.285 91.68C126.285 90.7733 125.978 90.0133 125.365 89.4C124.778 88.76 124.018 88.44 123.085 88.44C122.152 88.44 121.378 88.76 120.765 89.4C120.178 90.0133 119.885 90.7733 119.885 91.68C119.885 92.6133 120.178 93.4 120.765 94.04ZM118.645 110.04L137.245 89.24L139.205 90.32L120.565 111.16L118.645 110.04ZM139.685 112.68C138.485 113.88 136.978 114.48 135.165 114.48C133.352 114.48 131.845 113.88 130.645 112.68C129.445 111.48 128.845 110.013 128.845 108.28C128.845 106.547 129.445 105.08 130.645 103.88C131.845 102.68 133.352 102.08 135.165 102.08C136.978 102.08 138.485 102.68 139.685 103.88C140.885 105.08 141.485 106.547 141.485 108.28C141.485 110.013 140.885 111.48 139.685 112.68ZM132.845 110.6C133.458 111.213 134.232 111.52 135.165 111.52C136.098 111.52 136.858 111.213 137.445 110.6C138.058 109.96 138.365 109.187 138.365 108.28C138.365 107.373 138.058 106.613 137.445 106C136.858 105.36 136.098 105.04 135.165 105.04C134.232 105.04 133.458 105.36 132.845 106C132.258 106.613 131.965 107.373 131.965 108.28C131.965 109.187 132.258 109.96 132.845 110.6Z" fill="#DC0D15"/>
</svg>
