<svg width="200" height="200" viewBox="0 0 200 200" fill="none" xmlns="http://www.w3.org/2000/svg">
<circle cx="100" cy="100" r="100" fill="white"/>
<path d="M100 -4.37114e-06C121.918 -5.32919e-06 143.228 7.20074 160.654 20.4946C178.08 33.7885 190.655 52.4392 196.446 73.5779C202.237 94.7167 200.923 117.173 192.706 137.491C184.489 157.81 169.824 174.867 150.966 186.038C132.109 197.208 110.104 201.874 88.3357 199.317C66.5677 196.761 46.2425 187.124 30.4864 171.888C14.7303 156.652 4.41604 136.662 1.13017 114.992C-2.1557 93.322 1.7688 71.1727 12.3 51.9509L100 100L100 -4.37114e-06Z" fill="#DC0D15"/>
<circle cx="100" cy="100" r="68" fill="black"/>
<path d="M72.5333 98.32V101.64H65.5733V108.6H62.2533V101.64H55.3333V98.32H62.2533V91.4H65.5733V98.32H72.5333ZM91.5302 99.52C92.8902 100.213 93.9568 101.147 94.7302 102.32C95.5035 103.493 95.8902 104.827 95.8902 106.32C95.8902 108.88 94.9968 110.893 93.2102 112.36C91.4235 113.8 89.1168 114.52 86.2902 114.52C83.4902 114.52 81.1968 113.8 79.4102 112.36C77.6235 110.893 76.7302 108.88 76.7302 106.32C76.7302 104.827 77.1168 103.493 77.8902 102.32C78.6635 101.147 79.7302 100.213 81.0902 99.52C78.7968 98.08 77.6502 96.04 77.6502 93.4C77.6502 90.8667 78.4902 88.92 80.1702 87.56C81.8768 86.1733 83.9168 85.48 86.2902 85.48C88.6902 85.48 90.7302 86.1733 92.4102 87.56C94.1168 88.92 94.9702 90.8667 94.9702 93.4C94.9702 96.04 93.8235 98.08 91.5302 99.52ZM86.2902 89.04C84.8768 89.04 83.6902 89.4133 82.7302 90.16C81.7968 90.9067 81.3302 92.0133 81.3302 93.48C81.3302 94.8933 81.8102 96 82.7702 96.8C83.7302 97.5733 84.9035 97.96 86.2902 97.96C87.6768 97.96 88.8502 97.5733 89.8102 96.8C90.7702 96 91.2502 94.8933 91.2502 93.48C91.2502 92.0133 90.7835 90.9067 89.8502 90.16C88.9168 89.4133 87.7302 89.04 86.2902 89.04ZM86.2902 110.96C88.0768 110.96 89.5035 110.547 90.5702 109.72C91.6635 108.867 92.2102 107.653 92.2102 106.08C92.2102 104.533 91.6635 103.347 90.5702 102.52C89.5035 101.667 88.0768 101.24 86.2902 101.24C84.5302 101.24 83.1035 101.667 82.0102 102.52C80.9435 103.347 80.4102 104.533 80.4102 106.08C80.4102 107.653 80.9435 108.867 82.0102 109.72C83.1035 110.547 84.5302 110.96 86.2902 110.96ZM109.93 97.48C112.063 97.88 113.81 98.8 115.17 100.24C116.53 101.68 117.21 103.507 117.21 105.72C117.21 108.44 116.277 110.587 114.41 112.16C112.543 113.733 110.277 114.52 107.61 114.52C105.477 114.52 103.583 114.04 101.93 113.08C100.277 112.093 99.1032 110.68 98.4098 108.84L101.53 107C102.357 109.587 104.383 110.88 107.61 110.88C109.343 110.88 110.757 110.427 111.85 109.52C112.943 108.613 113.49 107.347 113.49 105.72C113.49 104.093 112.943 102.827 111.85 101.92C110.757 100.987 109.343 100.52 107.61 100.52H106.65L105.17 98.24L111.65 89.48H99.2098V86H116.01V89.28L109.93 97.48ZM126.405 97.88C124.592 97.88 123.085 97.28 121.885 96.08C120.685 94.88 120.085 93.4133 120.085 91.68C120.085 89.9733 120.685 88.52 121.885 87.32C123.112 86.0933 124.618 85.48 126.405 85.48C128.218 85.48 129.725 86.08 130.925 87.28C132.125 88.48 132.725 89.9467 132.725 91.68C132.725 93.4133 132.125 94.88 130.925 96.08C129.752 97.28 128.245 97.88 126.405 97.88ZM124.085 94.04C124.698 94.6533 125.472 94.96 126.405 94.96C127.338 94.96 128.098 94.64 128.685 94C129.298 93.36 129.605 92.5867 129.605 91.68C129.605 90.7733 129.298 90.0133 128.685 89.4C128.098 88.76 127.338 88.44 126.405 88.44C125.472 88.44 124.698 88.76 124.085 89.4C123.498 90.0133 123.205 90.7733 123.205 91.68C123.205 92.6133 123.498 93.4 124.085 94.04ZM121.965 110.04L140.565 89.24L142.525 90.32L123.885 111.16L121.965 110.04ZM143.005 112.68C141.805 113.88 140.298 114.48 138.485 114.48C136.672 114.48 135.165 113.88 133.965 112.68C132.765 111.48 132.165 110.013 132.165 108.28C132.165 106.547 132.765 105.08 133.965 103.88C135.165 102.68 136.672 102.08 138.485 102.08C140.298 102.08 141.805 102.68 143.005 103.88C144.205 105.08 144.805 106.547 144.805 108.28C144.805 110.013 144.205 111.48 143.005 112.68ZM136.165 110.6C136.778 111.213 137.552 111.52 138.485 111.52C139.418 111.52 140.178 111.213 140.765 110.6C141.378 109.96 141.685 109.187 141.685 108.28C141.685 107.373 141.378 106.613 140.765 106C140.178 105.36 139.418 105.04 138.485 105.04C137.552 105.04 136.778 105.36 136.165 106C135.578 106.613 135.285 107.373 135.285 108.28C135.285 109.187 135.578 109.96 136.165 110.6Z" fill="#DC0D15"/>
</svg>
