<svg width="543" height="272" viewBox="0 0 543 272" fill="none" xmlns="http://www.w3.org/2000/svg">
<path d="M119.42 154.972L136.157 130.772C128.467 124.213 119.42 119.463 109.242 116.296C99.0645 113.13 87.7558 111.547 75.5424 111.547C66.4954 111.547 58.3531 112.451 50.6631 114.713C43.4255 116.523 36.8665 119.689 31.6645 123.534C26.4624 127.379 22.1651 132.355 19.451 138.235C16.2846 143.89 14.9275 150.675 14.9275 158.139C14.9275 171.935 18.9987 182.339 27.141 189.577C35.2833 196.815 46.8182 201.338 61.5195 203.374L84.8155 206.314C92.5055 207.445 97.9337 209.254 101.326 211.742C104.719 214.23 106.302 217.849 106.302 222.146C106.302 227.348 103.814 231.419 99.0645 234.36C94.0887 237.3 86.6249 238.883 76.6732 238.883C67.4001 238.883 58.3531 237.752 49.9846 235.49C41.6162 233.229 33.0215 229.384 24.653 224.182L10.404 252.001C20.1295 258.56 30.3074 263.084 40.4853 265.572C50.6631 268.06 62.198 269.417 74.6377 269.417C85.2679 269.417 94.541 268.286 102.683 265.798C111.052 263.536 117.837 260.37 123.491 255.846C128.92 251.775 132.991 246.573 135.931 240.466C138.871 234.36 140.228 227.801 140.228 220.337C140.228 207.445 136.157 197.041 128.015 189.351C119.646 181.209 107.207 176.233 90.6961 173.971L68.5309 171.031C61.5195 170.126 56.5437 168.543 53.3772 166.281C50.2108 164.245 48.6276 160.853 48.6276 156.556C48.6276 151.806 50.6631 148.187 54.9605 145.473C59.2578 142.985 66.2692 141.628 76.2209 141.628C84.137 141.628 91.8269 142.759 99.2907 145.021C106.754 147.282 113.314 150.675 119.42 154.972ZM206.033 114.713H168.94V266.25H201.962V166.281H203.997L239.054 223.956H256.696L291.753 166.281H293.789V266.25H327.036V114.713H290.622L248.554 183.47L206.033 114.713ZM399.739 114.713H362.646V266.25H395.668V166.281H397.703L432.761 223.956H450.402L485.459 166.281H487.495V266.25H520.743V114.713H484.328L442.26 183.47L399.739 114.713Z" fill="white"/>
<path d="M530.63 15.3022V46.5397C530.598 49.467 528.827 50.7241 526.496 50.7924C519.158 51.4856 511.231 51.4856 503.588 50.7924C501.544 50.7241 499.877 48.6481 499.798 46.4464V15.3022H487.497V49.2515C487.834 57.4479 492.672 61.9017 500.883 62.2465C510.319 62.6236 519.941 62.6739 530.228 62.2465C538.022 61.9017 542.601 56.9953 543 49.2515V15.3022H530.63Z" fill="white"/>
<path d="M226.045 33.8038C221.731 33.4661 198.906 32.3958 195.677 32.0258C193.231 31.8606 192.261 30.5856 192.261 28.5526C192.261 26.9184 193.317 25.6146 195.493 25.4422C202.803 24.9286 215.438 25.1261 220.474 25.4134C222.92 25.5391 223.911 26.7567 224.001 28.2114V30.3341H236.422C236.422 30.3341 236.447 29.7199 236.422 28.3874C236.174 19.1314 231.72 15.511 223.161 15.2164C213.865 14.868 203.772 14.7387 194.157 15.299C187.735 15.7121 180.961 19.0488 180.017 26.9148C179.808 28.646 179.808 29.7199 179.959 31.0417C180.994 39.7876 187.337 41.8673 192.394 42.2875C197.627 42.758 219.001 43.8679 221.584 44.0511C225.111 44.3492 225.625 45.7643 225.625 47.6141C225.625 49.7117 224.623 50.8682 221.584 51.1304C215.029 51.5291 202.634 51.4824 196.442 51.2274C194.222 51.1304 192.634 50.624 192.588 47.9086L192.566 45.6709H180.196C180.196 45.6709 180.117 46.7556 180.149 47.0178C180.228 56.7587 183.529 61.2627 192.803 61.9811C201.772 62.6671 215.363 62.5773 225.395 61.9523C234.155 61.4028 237.398 55.3184 237.711 48.3396C237.722 47.905 237.711 47.2333 237.711 46.6694C237.456 38.412 232.65 34.4108 226.045 33.8038Z" fill="white"/>
<path d="M354.038 37.3844C355.941 36.5188 358.168 33.6848 358.168 28.2577C358.168 20.0074 352.903 15.6147 345.152 15.3022H304.468V62.3758H345.489C355.097 62.1962 359.418 57.0277 359.418 47.9082C359.418 41.5544 356.333 38.0273 354.038 37.3844ZM316.816 25.6393H342.031C344.315 25.7902 346.197 26.7995 346.197 29.2957C346.197 31.8567 344.466 33.2107 341.79 33.4227H316.816V25.6393ZM341.779 52.0746H316.816V43.1455H342.031C344.11 43.2317 346.941 44.0902 346.941 47.549C346.941 51.0582 344.577 51.9202 341.779 52.0746Z" fill="white"/>
<path d="M285.521 46.5397C285.475 49.467 283.693 50.7241 281.395 50.7924C274.039 51.4856 266.087 51.4856 258.454 50.7924C256.396 50.7241 254.729 48.6481 254.618 46.4464V15.3022H242.359V49.2515C242.697 57.4479 247.499 61.9017 255.76 62.2465C265.181 62.6236 274.804 62.6739 285.037 62.2465C292.885 61.9017 297.417 56.9953 297.874 49.2515V15.3022H285.518V46.5397H285.521Z" fill="white"/>
<path d="M476.645 40.1314C478.703 38.9497 481.566 35.9937 481.566 29.507C481.566 19.7805 476.448 15.7146 468.327 15.3052H427.068V62.3751H439.37L439.381 45.5262H464.958C467.874 45.5909 469.379 47.5448 469.541 50.0195C469.835 54.8827 469.724 62.3392 469.724 62.3392L482.191 62.3751C482.191 62.3751 482.191 55.6119 482.033 50.5511C481.878 45.1527 479.134 40.8677 476.645 40.1314ZM464.979 34.6145H439.381V25.6674L464.958 25.6387C467.874 25.9404 469.401 27.1759 469.401 30.132C469.401 32.991 467.874 34.5857 464.979 34.6145Z" fill="white"/>
<path d="M397.512 15.3022H385.361H384.502L358.796 62.3758H372.851L377.251 53.9747H405.256L409.576 62.3758H424.023L398.359 15.3022H397.512ZM382.477 44.0004L391.381 27.0042L400.123 44.0004H382.477Z" fill="white"/>
<path d="M14.5658 30.9017C20.7486 31.7904 37.826 34.5112 42.5809 35.4234C47.6762 36.4021 49.8571 37.6646 51.373 43.0965C52.5935 47.4753 53.3446 50.2372 54.8839 56.3718C55.1441 57.4112 55.4727 58.1609 55.9675 58.1609C56.4624 58.1609 56.789 57.4112 57.0511 56.3718C58.5905 50.2372 59.3415 47.4753 60.5621 43.0965C62.076 37.6646 64.2569 36.4021 69.3541 35.4234C74.109 34.5112 91.1865 31.7904 97.3693 30.9017C98.5761 30.7588 99.8533 30.6609 100.466 30.7158C104.994 31.3167 110.881 32.2758 113.052 32.7593C115.339 33.2702 115.857 34.0786 116.305 35.3216C116.792 36.6722 117.162 37.6725 117.862 40.1408C118.095 40.9609 118.278 41.4738 118.726 41.4738C119.174 41.4738 119.36 40.9609 119.591 40.1408C120.291 37.6725 120.661 36.6722 121.148 35.3216C121.596 34.0767 122.112 33.2682 124.401 32.7593C126.57 32.2758 132.459 31.3147 136.987 30.7158C137.349 30.6668 138.345 30.5709 138.337 29.8975C138.331 29.3162 137.374 29.1889 136.987 29.1439C132.422 28.6233 126.562 27.7072 124.401 27.2981C122.576 26.9516 121.606 26.0062 121.148 24.8141C120.606 23.3989 120.299 22.5141 119.644 20.1848C119.384 19.2609 119.174 18.7382 118.724 18.7382C118.275 18.7382 118.065 19.2609 117.805 20.1848C117.15 22.5141 116.845 23.3989 116.301 24.8141C115.843 26.0062 114.873 26.9516 113.048 27.2981C110.887 27.7091 105.027 28.6233 100.462 29.1439C99.6127 29.2124 98.5565 29.1283 97.3654 29.0187C91.0633 28.3923 73.8821 26.6737 69.3502 26.0414C63.9732 25.2917 62.1151 23.8628 60.5934 20.1358C59.1929 16.7045 58.1836 13.7996 57.0589 9.97873C56.7538 8.94325 56.4585 8.21509 55.9636 8.21509C55.4687 8.21509 55.1734 8.94325 54.8683 9.97873C53.7436 13.7977 52.7343 16.7045 51.3339 20.1358C49.8121 23.8628 47.9559 25.2917 42.577 26.0414C38.0451 26.6737 20.8639 28.3923 14.5619 29.0187C13.9007 29.0852 12.8152 29.3221 12.8152 29.9191C12.8191 30.5885 13.8773 30.8019 14.5658 30.9017Z" fill="white"/>
<path d="M134.073 40.0094C133.29 38.2072 133.055 36.9842 132.859 36.178C132.648 35.3073 132.461 34.7379 131.945 34.7379C131.428 34.7379 131.242 35.3073 131.028 36.178C130.831 36.9842 130.598 38.2072 129.814 40.0094C129.45 40.8488 128.689 41.3987 127.357 41.5748C123.132 42.1325 121.922 42.291 118.457 42.741C117.609 42.8447 116.297 42.8956 115.743 42.8271C112.471 42.4377 109.523 41.9681 105.078 41.3263C103.306 41.07 102.558 40.4849 102.071 39.3167C101.278 37.4089 101.011 36.3052 100.647 34.9688C100.477 34.3406 100.269 33.5168 99.7408 33.5168C99.2121 33.5168 99.0065 34.3426 98.8362 34.9688C98.472 36.3052 98.2077 37.4089 97.4128 39.3167C96.9272 40.4829 96.1793 41.07 94.4054 41.3263C89.961 41.9681 87.0084 42.4201 83.7406 42.8271C83.1924 42.8956 82.4758 43.0443 82.4758 43.5805C82.4758 44.2204 83.447 44.2673 83.7426 44.3084C87.028 44.7643 89.9629 45.2477 94.4015 45.9443C96.0794 46.2084 96.937 46.8757 97.401 48.6446C97.9453 50.7168 98.2175 51.7109 98.8656 54.3564C98.9889 54.8612 99.2513 55.5324 99.7486 55.5324C100.246 55.5324 100.495 54.8593 100.618 54.3564C101.266 51.7109 101.538 50.7168 102.082 48.6446C102.546 46.8757 103.404 46.2065 105.082 45.9443C109.521 45.2477 112.457 44.7663 115.741 44.3084C116.8 44.1538 117.609 44.2556 118.455 44.3593C122.02 44.8054 123.13 44.8935 127.355 45.3827C128.698 45.5392 129.417 46.1967 129.812 47.4568C130.482 49.5936 130.746 50.5348 131.003 51.478C131.212 52.247 131.332 52.926 131.943 52.926C132.554 52.926 132.673 52.247 132.882 51.478C133.139 50.5348 133.403 49.5956 134.073 47.4568C134.466 46.1967 135.187 45.5392 136.53 45.3827C140.755 44.8935 141.865 44.8054 145.431 44.3593C146.044 44.283 146.88 44.2223 146.88 43.5805C146.88 42.9563 146.02 42.8174 145.431 42.741C141.965 42.291 140.755 42.1344 136.53 41.5748C135.199 41.3987 134.437 40.8488 134.073 40.0094Z" fill="white"/>
<path d="M79.0261 77.5474C122.671 77.5474 158.052 60.1882 158.052 38.7727C158.052 17.3572 122.671 0 79.0261 0C35.3808 0 0 17.3592 0 38.7747C0 60.1902 35.3808 77.5474 79.0261 77.5474ZM78.9634 4.58512C119.461 4.58512 151.749 19.8897 151.749 38.7708C151.749 57.6518 119.461 72.9564 78.9634 72.9564C38.466 72.9564 6.17823 57.6518 6.17823 38.7708C6.17823 19.8897 38.466 4.58512 78.9634 4.58512Z" fill="white"/>
<path d="M126.375 57.1086C124.101 56.824 121.67 56.5452 117.498 55.9502C115.964 55.7308 115.325 55.2406 115.005 54.4182C114.518 53.1709 114.044 51.4195 113.883 50.5339C113.758 49.8401 113.373 49.0632 112.912 49.0652C112.451 49.0632 112.066 49.8401 111.941 50.5339C111.781 51.4195 111.306 53.1709 110.819 54.4182C110.497 55.2425 109.86 55.7328 108.326 55.9502C104.154 56.5452 101.722 56.824 99.449 57.1086C98.8198 57.1857 97.1921 57.2845 96.561 57.1818C93.4815 56.735 90.2749 56.2507 84.2859 55.3908C82.3631 55.116 81.4858 54.2838 81.0364 53.2282C80.1805 51.2119 79.6099 48.8695 79.3071 47.7961C79.1253 47.1497 78.928 46.3313 78.4141 46.3313C77.9002 46.3313 77.7008 47.1497 77.5191 47.7961C77.2163 48.8695 76.6457 51.21 75.7898 53.2282C75.3404 54.2858 74.465 55.116 72.5403 55.3908C66.5512 56.2487 63.3447 56.733 60.2652 57.1818C59.7356 57.2589 58.8173 57.3616 58.8173 57.9448C58.8173 58.5437 59.7395 58.6386 60.2613 58.7217C63.3447 59.2158 66.6001 59.7436 72.5403 60.7557C74.5178 61.0918 75.2935 62.4498 75.8133 64.1182C76.3741 65.923 77.1928 68.5402 77.5621 69.6314C77.7673 70.2383 78.0018 70.9756 78.4141 70.9756C78.8264 70.9756 79.0608 70.2383 79.266 69.6314C79.6353 68.5402 80.4521 65.921 81.0149 64.1182C81.5346 62.4498 82.3104 61.0918 84.2878 60.7557C90.228 59.7436 93.4834 59.2158 96.5669 58.7217C97.6963 58.5655 98.5443 58.6683 99.4471 58.773C101.724 59.034 104.148 59.2949 108.334 59.8682C109.854 60.0757 110.542 60.7656 110.821 61.5781C111.109 62.4142 111.578 63.9146 111.982 65.3379C112.246 66.267 112.377 66.8066 112.914 66.8066C113.451 66.8066 113.584 66.267 113.848 65.3379C114.253 63.9146 114.72 62.4142 115.009 61.5781C115.288 60.7656 115.978 60.0757 117.496 59.8682C121.682 59.2949 124.107 59.032 126.383 58.773C126.594 58.7493 127.821 58.5951 127.821 57.9468C127.815 57.3142 126.964 57.1837 126.375 57.1086Z" fill="white"/>
</svg>
