<svg width="169" height="517" viewBox="0 0 169 517" fill="none" xmlns="http://www.w3.org/2000/svg">
<path d="M-4.57137e-06 457.6L-2.00988e-06 516.2L67 516.2L67 501.1L13.9 501.1L13.9 472.7L67 472.7L67 457.6L-4.57137e-06 457.6ZM-6.56095e-06 412.084L-5.25835e-06 441.884L67 441.884L67 426.884L48.7 426.884L48.7 413.284C48.7 409.384 48.2 405.684 47 402.284C46 398.884 44.4 395.884 42.2 393.484C40.2 390.884 37.6 388.984 34.6 387.484C31.5 386.084 28.1 385.384 24.2 385.384C20.5 385.384 17.2 385.984 14.2 387.284C11.3 388.584 8.79999 390.384 6.59999 392.684C4.59999 395.084 2.89999 397.884 1.79999 401.184C0.599991 404.484 -6.7358e-06 408.084 -6.56095e-06 412.084ZM35.4 426.884L13.4 426.884L13.4 412.684C13.4 408.584 14.4 405.584 16.4 403.484C18.3 401.484 21 400.484 24.3 400.484C27.7 400.484 30.4 401.584 32.4 403.884C34.4 406.184 35.4 409.284 35.4 413.284L35.4 426.884ZM-8.92751e-06 357.943L-8.28058e-06 372.743L67 372.743L67 358.043L24.9 327.243L67 327.243L67 312.343L-1.09208e-05 312.343L-1.03438e-05 325.543L44.6 357.943L-8.92751e-06 357.943ZM-1.23185e-05 280.366L-1.16016e-05 296.766L67 296.766L67 282.166L22.8 282.166L22.8 281.266L48.3 265.766L48.3 257.966L22.8 242.466L22.8 241.566L67 241.566L67 226.866L-1.46571e-05 226.866L-1.39533e-05 242.966L30.4 261.566L-1.23185e-05 280.366ZM-1.75352e-05 161.022L-1.53453e-05 211.122L67 211.122L67 159.322L53.5 159.322L53.5 196.322L39.2 196.322L39.2 164.822L26.1 164.822L26.1 196.322L13.5 196.322L13.5 161.022L-1.75352e-05 161.022ZM-1.94908e-05 116.283L-1.81882e-05 146.083L67 146.083L67 131.083L48.7 131.083L48.7 117.483C48.7 113.583 48.2 109.883 47 106.483C46 103.083 44.4 100.083 42.2 97.6828C40.2 95.0828 37.6 93.1828 34.6 91.6828C31.5 90.2828 28.1 89.5828 24.2 89.5828C20.5 89.5828 17.2 90.1828 14.2 91.4828C11.3 92.7828 8.79998 94.5828 6.59998 96.8828C4.59998 99.2828 2.89998 102.083 1.79998 105.383C0.599978 108.683 -1.96657e-05 112.283 -1.94908e-05 116.283ZM35.4 131.083L13.4 131.083L13.4 116.883C13.4 112.783 14.4 109.783 16.4 107.683C18.3 105.683 21 104.683 24.3 104.683C27.7 104.683 30.4 105.783 32.4 108.083C34.4 110.383 35.4 113.483 35.4 117.483L35.4 131.083ZM-2.45413e-05 0.742184L-2.38856e-05 15.7422L67 15.7422L67 0.742181L-2.45413e-05 0.742184ZM-2.18661e-05 61.9422L-2.12104e-05 76.9422L67 76.9422L67 48.7422C67 44.9422 66.4 41.4422 65.4 38.3422C64.2 35.1422 62.7 32.4422 60.6 30.1422C58.6 27.8422 56.2 26.1422 53.4 24.8422C50.5 23.5422 47.4 22.9422 43.9 22.9422C40.2 22.9422 36.8 23.5422 34 24.8422C31 26.1422 28.6 27.9422 26.6 30.1422C24.7 32.5422 23.2 35.2422 22.2 38.5422C21.1 41.8422 20.6 45.4422 20.6 49.3422L20.6 61.9422L-2.18661e-05 61.9422ZM53.6 61.9422L33.9 61.9422L33.9 49.9422C33.9 46.0422 34.7 43.1422 36.4 41.0422C38 38.9422 40.5 37.9422 43.8 37.9422C50.3 37.9422 53.6 41.9422 53.6 49.8422L53.6 61.9422Z" fill="#00A0DC"/>
<path d="M100 457.6L100 516.2L167 516.2L167 501.1L113.9 501.1L113.9 472.7L167 472.7L167 457.6L100 457.6ZM98.6 409.384C98.6 414.584 99.5 419.384 101.4 423.684C103.2 427.984 105.7 431.784 108.8 434.884C111.9 438.084 115.6 440.584 119.9 442.284C124.2 443.984 128.7 444.884 133.5 444.884C138.4 444.884 143 443.984 147.3 442.284C151.6 440.584 155.3 438.084 158.4 434.884C161.5 431.784 164 427.984 165.8 423.684C167.5 419.384 168.4 414.584 168.4 409.384C168.4 404.084 167.5 399.284 165.6 394.884C163.8 390.584 161.3 386.784 158.2 383.684C155 380.584 151.3 378.084 147 376.384C142.8 374.684 138.3 373.784 133.5 373.784C128.5 373.784 123.9 374.684 119.6 376.384C115.4 378.084 111.7 380.484 108.6 383.684C105.5 386.684 103 390.484 101.2 394.884C99.5 399.284 98.6 404.084 98.6 409.384ZM112 409.384C112 406.184 112.5 403.284 113.6 400.684C114.7 398.184 116.2 395.984 118.1 394.284C120 392.484 122.3 391.084 125 390.184C127.6 389.284 130.4 388.784 133.5 388.784C136.4 388.784 139.2 389.284 141.8 390.084C144.4 391.084 146.7 392.384 148.6 394.084C150.6 395.884 152.2 398.084 153.3 400.684C154.4 403.184 155 406.084 155 409.384C155 412.584 154.4 415.484 153.4 417.984C152.2 420.484 150.7 422.684 148.8 424.484C146.9 426.284 144.6 427.684 142 428.584C139.3 429.484 136.5 429.984 133.5 429.984C130.5 429.984 127.7 429.484 125.1 428.584C122.5 427.684 120.2 426.284 118.3 424.484C116.4 422.784 114.8 420.584 113.7 418.084C112.6 415.484 112 412.584 112 409.384ZM118.7 308.743L107.8 300.443C104.8 303.843 102.5 307.743 101 312.043C99.4 316.343 98.6 321.143 98.6 326.343C98.6 332.043 99.5 337.243 101.4 341.743C103.2 346.243 105.7 350.143 108.9 353.343C112.1 356.543 115.8 359.043 120.1 360.643C124.4 362.443 128.9 363.243 133.7 363.243C139 363.243 143.7 362.343 148 360.643C152.3 358.943 155.9 356.443 159 353.443C162 350.243 164.3 346.543 166 342.243C167.6 337.943 168.4 333.143 168.4 327.943C168.4 316.343 164.8 306.743 157.6 299.143L147.1 307.643C149.6 310.243 151.4 313.243 152.8 316.443C154 319.843 154.7 323.343 154.7 327.143C154.7 330.243 154.2 333.143 153.2 335.743C152.1 338.343 150.7 340.543 148.8 342.443C147 344.343 144.8 345.743 142.2 346.843C139.6 347.843 136.7 348.343 133.5 348.343C130.4 348.343 127.6 347.843 125 346.843C122.4 345.843 120.2 344.443 118.2 342.543C116.3 340.643 114.9 338.443 113.8 335.843C112.8 333.143 112.3 330.243 112.3 326.943C112.3 323.243 112.8 319.843 114 316.843C115 313.743 116.6 311.043 118.7 308.743ZM100 229.703L100 290.403L113.6 290.403L113.6 267.503L167 267.503L167 252.603L113.6 252.603L113.6 229.703L100 229.703ZM98.6 188.095C98.6 193.295 99.5 198.095 101.4 202.395C103.2 206.695 105.7 210.495 108.8 213.595C111.9 216.795 115.6 219.295 119.9 220.995C124.2 222.695 128.7 223.595 133.5 223.595C138.4 223.595 143 222.695 147.3 220.995C151.6 219.295 155.3 216.795 158.4 213.595C161.5 210.495 164 206.695 165.8 202.395C167.5 198.095 168.4 193.295 168.4 188.095C168.4 182.795 167.5 177.995 165.6 173.595C163.8 169.295 161.3 165.495 158.2 162.395C155 159.295 151.3 156.795 147 155.095C142.8 153.395 138.3 152.495 133.5 152.495C128.5 152.495 123.9 153.395 119.6 155.095C115.4 156.795 111.7 159.195 108.6 162.395C105.5 165.395 103 169.195 101.2 173.595C99.5 177.995 98.6 182.795 98.6 188.095ZM112 188.095C112 184.895 112.5 181.995 113.6 179.395C114.7 176.895 116.2 174.695 118.1 172.995C120 171.195 122.3 169.795 125 168.895C127.6 167.995 130.4 167.495 133.5 167.495C136.4 167.495 139.2 167.995 141.8 168.795C144.4 169.795 146.7 171.095 148.6 172.795C150.6 174.595 152.2 176.795 153.3 179.395C154.4 181.895 155 184.795 155 188.095C155 191.295 154.4 194.195 153.4 196.695C152.2 199.195 150.7 201.395 148.8 203.195C146.9 204.995 144.6 206.395 142 207.295C139.3 208.195 136.5 208.695 133.5 208.695C130.5 208.695 127.7 208.195 125.1 207.295C122.5 206.395 120.2 204.995 118.3 203.195C116.4 201.495 114.8 199.295 113.7 196.795C112.6 194.195 112 191.295 112 188.095ZM100 110.33L100 139.93L167 139.93L167 107.53C167 103.23 166.5 99.5305 165.4 96.4305C164.3 93.3305 162.9 90.7305 161.1 88.7305C159.3 86.6305 157.2 85.1305 154.8 84.1305C152.3 83.2305 149.7 82.7305 147 82.7305C143.3 82.7305 140.1 83.7305 137.4 85.7305C134.6 87.6305 132.7 90.2305 131.6 93.5305L130.7 93.5305C129.6 91.5305 128 89.9305 125.8 88.7305C123.6 87.6305 121.1 87.0305 118.3 87.0305C112.6 87.0305 108.2 89.0305 104.9 93.1305C101.6 97.1305 100 102.83 100 110.33ZM154.2 125.03L138.6 125.03L138.6 107.43C138.6 104.23 139.2 101.73 140.6 100.03C141.8 98.3305 143.8 97.4305 146.3 97.4305C151.6 97.4305 154.2 100.73 154.2 107.33L154.2 125.03ZM126.4 125.03L112.8 125.03L112.8 110.23C112.8 104.53 115 101.63 119.5 101.63C121.6 101.63 123.3 102.33 124.6 103.73C125.8 105.23 126.4 107.23 126.4 109.73L126.4 125.03Z" fill="white"/>
</svg>
