<svg width="71" height="362" viewBox="0 0 71 362" fill="none" xmlns="http://www.w3.org/2000/svg">
<path d="M0.599997 325.7C0.599997 330.9 1.5 335.7 3.4 340C5.2 344.3 7.7 348.1 10.8 351.2C13.9 354.4 17.6 356.9 21.9 358.6C26.2 360.3 30.7 361.2 35.5 361.2C40.4 361.2 45 360.3 49.3 358.6C53.6 356.9 57.3 354.4 60.4 351.2C63.5 348.1 66 344.3 67.8 340C69.5 335.7 70.4 330.9 70.4 325.7C70.4 320.4 69.5 315.6 67.6 311.2C65.8 306.9 63.3 303.1 60.2 300C57 296.9 53.3 294.4 49 292.7C44.8 291 40.3 290.1 35.5 290.1C30.5 290.1 25.9 291 21.6 292.7C17.4 294.4 13.7 296.8 10.6 300C7.5 303 4.99999 306.8 3.19999 311.2C1.5 315.6 0.599996 320.4 0.599997 325.7ZM14 325.7C14 322.5 14.5 319.6 15.6 317C16.7 314.5 18.2 312.3 20.1 310.6C22 308.8 24.3 307.4 27 306.5C29.6 305.6 32.4 305.1 35.5 305.1C38.4 305.1 41.2 305.6 43.8 306.4C46.4 307.4 48.7 308.7 50.6 310.4C52.6 312.2 54.2 314.4 55.3 317C56.4 319.5 57 322.4 57 325.7C57 328.9 56.4 331.8 55.4 334.3C54.2 336.8 52.7 339 50.8 340.8C48.9 342.6 46.6 344 44 344.9C41.3 345.8 38.5 346.3 35.5 346.3C32.5 346.3 29.7 345.8 27.1 344.9C24.5 344 22.2 342.6 20.3 340.8C18.4 339.1 16.8 336.9 15.7 334.4C14.6 331.8 14 328.9 14 325.7ZM1.99999 264.263L1.99999 282.963L34.2 261.563L69 285.063L69 265.763L43.2 250.963L43.2 249.963L69 234.963L69 215.563L35 239.063L1.99999 217.663L1.99999 236.163L25.9 249.463L25.9 250.463L1.99999 264.263ZM1.99999 175.866L1.99999 205.466L69 205.466L69 173.066C69 168.766 68.5 165.066 67.4 161.966C66.3 158.866 64.9 156.266 63.1 154.266C61.3 152.166 59.2 150.666 56.8 149.666C54.3 148.766 51.7 148.266 49 148.266C45.3 148.266 42.1 149.266 39.4 151.266C36.6 153.166 34.7 155.766 33.6 159.066L32.7 159.066C31.6 157.066 30 155.466 27.8 154.266C25.6 153.166 23.1 152.566 20.3 152.566C14.6 152.566 10.2 154.566 6.89999 158.666C3.59999 162.666 1.99999 168.366 1.99999 175.866ZM56.2 190.566L40.6 190.566L40.6 172.966C40.6 169.766 41.2 167.266 42.6 165.566C43.8 163.866 45.8 162.966 48.3 162.966C53.6 162.966 56.2 166.266 56.2 172.866L56.2 190.566ZM28.4 190.566L14.8 190.566L14.8 175.766C14.8 170.066 17 167.166 21.5 167.166C23.6 167.166 25.3 167.866 26.6 169.266C27.8 170.766 28.4 172.766 28.4 175.266L28.4 190.566ZM1.89999 97.0086L1.89999 113.509L69 141.009L69 124.709L55.7 119.709L55.7 91.0086L69 85.9086L69 69.3086L1.89999 97.0086ZM42.5 114.809L17 105.809L17 104.809L42.5 95.9086L42.5 114.809ZM1.99998 0.511715L1.99999 61.2117L15.6 61.2117L15.6 38.3117L69 38.3117L69 23.4117L15.6 23.4117L15.6 0.511714L1.99998 0.511715Z" fill="white"/>
</svg>
